<?xml version="1.0" encoding="UTF-8" standalone="no"?>
<svg version="1.1" width="400" height="330" 
	xmlns="http://www.w3.org/2000/svg" 
	xmlns:xlink="http://www.w3.org/1999/xlink">

<!--small flag on top-->
<path fill="#0065c2" d="m 201,23 c 10,-5 15,-5 25,0 c 10,5 15,5 25,0 v15 
	c -10,5 -15,5 -25,0 c -10,-5 -15,-5 -25,0 v-15 z"/>
<path fill="#fff300" d="m 201,38 c 10,-5 15,-5 25,0 c 10,5 15,5 25,0 v15 
	c -10,5 -15,5 -25,0 c -10,-5 -15,-5 -25,0 v-15 z"/>



<!--building-->
<g style="fill:#bcebf3;stroke:#0065c2;stroke-width:3px">

  <!--center-->
<rect x="85" y="156" width="230" height="148"/>
<path d="m 79,156 v-5 h35 v-6 h 172 v6 h 35 v5 h-242 z"/>
<path fill="none" d="M 85,182 h 230 M 85,196 h 230 M 85,289 h 230 M 85,297 h 230"/>

<path d="M 162,182 c -16,-1 -14,-23 -23,-26 	M 174,182 c -15,-6 -11,-21 -21,-26
	 M 238,182 c 16,-1 14,-23 23,-26 	M 226,182 c 15,-6 11,-21 21,-26"/>

  <!--columns-->
<g id="column">
	<rect x="205" y="196" width="20" height="6"/>
	<rect x="205" y="283" width="20" height="6"/>
	<rect x="208" y="202" width="14" height="81"/>
</g>
<use xlink:href="#column" transform="translate(-30,0)"/>
<use xlink:href="#column" transform="translate(-60,0)"/>
<use xlink:href="#column" transform="translate(-90,0)"/>
<use xlink:href="#column" transform="translate(30,0)"/>
<use xlink:href="#column" transform="translate(60,0)"/>

  <!--sides-->
<g id="building_left_part">
	<rect x="34" y="182" width="77" height="107"/>
	<path fill="none" d="M 60,182 v 107 M 85,182 v 107 M 34,196 h 26 M 111,196 h -26"/>

	<rect x="28" y="168" width="89" height="14"/>
	<rect x="28" y="289" width="89" height="15"/>
</g>
<use xlink:href="#building_left_part" transform="scale(-1,1) translate(-400,0)"/>

  <!--top-->
<rect x="197" y="13" width="6" height="70" rx="2" ry="2"/>
<path d="m 122,145 a78,68,0,0,1,46,-50 h64 a78,68,0,0,1,46,50 h-156 z"/>
<path fill="none" d="M 159,145 a40,72,0,0,1,24,-50 M 241,145 a40,72,0,0,0,-24,-50"/>
<path d="m 172,95 l5,-5 h46 l5,5 h-56 z"/>
<path d="m 185,90 l3.5,-7 l-3.5,-7 h30 l-3.5,7 l3.5,7 h-30 z"/>

  <!--central circle-->
<circle fill="#fff300" cx="200" cy="145" r="35"/>

</g>



<!--trident-->
<g transform="translate(181.85,116)">
<path fill="#0065c2" transform="scale(0.15)" d="
	m 121,1 c -9.3,10.6 -15,24.4 -15,39.6 c 0.6,33.4 4.6,66.7 5,100 c 0.7,31.1 -8.6,60.3 -19.9,88.8 
		c -3.8,7.9 -7.9,15.6 -12,23.3 l -12,-2.4 c -10.8,-2.2 -17.9,-12.7 -15.7,-23.5 
		c 1.9,-9.5 10.2,-16.1 19.5,-16.1 l 4.4 0.5 l -9.8,-81.6 
		c -3.2,-36.3 -21.9,-68.2 -49.5,-88.9 c -4.7,-3.6 -9.8,-6.8 -15,-9.7 v 289.7 h 66.9 
		c 5,27.1 19.9,50.8 40.9,67 c 5,3.4 9.2,8 12.2,13.3 c 3,-5.3 7.2,-9.8 12.2,-13.3 
		c 21,-16.2 35.9,-39.9 40.9,-67 h 66.9 v -289.7 
		c -5.2,2.9 -10.3,6.1 -15,9.7 c -27.6,20.7 -46.3,52.6 -49.5,88.9 l -9.8,81.6 l 4.4,-0.5 
		c 9.3,0 17.6,6.6 19.5,16.1 c 2.2,10.8 -4.9,21.4 -15.7,23.5 l -12,2.4 
		c -4.1,-7.7 -8.2,-15.4 -12,-23.3 c -11.4,-28.5 -20.7,-57.7 -19.9,-88.8 
		c 0.4,-33.4 4.4,-66.7 5,-100 c 0,-15.2 -5.7,-29 -15,-39.6 z 
	m -100,71.7 c 12.9,15.2 21.6,34.1 24.2,54.9 l 8,67.3 c -10.2,5.1 -18,14.5 -20.9,25.8 h -11.3 v -148 z 
	m 200,0 v 148 h -11.3 c -2.9,-11.3 -10.7,-20.7 -20.9,-25.8 l 8,-67.3 c 2.6,-20.8 11.3,-39.7 24.2,-54.9 z 
	m -100,135.3 c 5.4,17.6 12.8,34.3 22,49.8 c -8.7,2.6 -16.3,7.8 -22,14.8 
		c -5.6,-7 -13.2,-12.1 -22,-14.8 c 9.2,-15.5 16.6,-32.2 22,-49.8 z 
	m -100,32.7 h 11.3 c 3.6,13.8 14.4,24.7 28,28.5 l 9.6,2.2 c -2.6,9.3 -4,19.1 -4,29.3 h -45 v -60 z 
	m 188.7,0 h 11.3 v 60 h -45 c 0,-10.1 -1.4,-20 -4,-29.3 l 9.6,-2.2 c 13.7,-3.8 24.5,-14.7 28,-28.5 z 
	m -120.2,35.3 c 12.1,1.7 21.5,12.1 21.5,24.7 h -25 c 0,-8.6 1.3,-16.8 3.5,-24.7 z 
	m 63,0 c 2.2,7.8 3.5,16.1 3.5,24.7 h -25 c 0,-12.6 9.4,-23 21.5,-24.7 z 
	m -64.2,44.7 h 22.7 v 42.1 c -11,-11.6 -19,-26 -22.7,-42.1 z 
	m 42.7,0 h 22.7 c -3.7,16.1 -11.7,30.6 -22.7,42.1 v -42.1 z"/>
</g>

</svg>